# xmcd
#
# Track frame offsets:
# 150
# 12600
# 22648
# 37271
# 55667
# 65033
# 77262
# 94546
# 111781
# 128610
# 138658
# 147196
# 173580
# 203874
#
# Disc length: 2967 seconds
#
# Revision: 0
# Processed by: cddbd v1.5.1PL0 Copyright (c) Steve Scherf et al.
# Submitted via: Audion 3.0.2 (http://www.panic.com/audion/)
#
DISCID=b50b950e
DTITLE=the  smiths - the  smiths
DYEAR=1900
DGENRE=
TTITLE0=the  smiths
TTITLE1=the  smiths
TTITLE2=the  smiths
TTITLE3=the  smiths
TTITLE4=the  smiths
TTITLE5=the  smiths
TTITLE6=the  smiths
TTITLE7=the  smiths
TTITLE8=the  smiths
TTITLE9=the  smiths
TTITLE10=the  smiths
TTITLE11=the  smiths
TTITLE12=the  smiths
TTITLE13=the  smiths
EXTD=
EXTT0=
EXTT1=
EXTT2=
EXTT3=
EXTT4=
EXTT5=
EXTT6=
EXTT7=
EXTT8=
EXTT9=
EXTT10=
EXTT11=
EXTT12=
EXTT13=
PLAYORDER=
